<svg version="1.1" viewBox="0 0 96 96" xmlns="http://www.w3.org/2000/svg" xmlns:xlink="http://www.w3.org/1999/xlink" id="Icons_Programmer" overflow="hidden"><circle cx="48" cy="30" r="16"/><path d=" M 77 57.91 C 76.7272 55.8269 75.6945 53.918 74.1 52.55 C 69.8277 49.6245 65.0452 47.525 60 46.36 C 59.43 46.23 58.83 46.12 58.23 46.01 C 52.0286 49.9836 44.0814 49.9836 37.88 46.01 L 36.08 46.34 C 31.0301 47.5754 26.2325 49.6764 21.9 52.55 C 20.12 53.69 19.38 55.81 19 57.91 L 16 75.1 C 15.8205 76.5508 16.4215 77.9884 17.58 78.88 L 24.43 83.4 L 24.43 61.75 C 24.4299 59.2426 26.4625 57.21 28.9699 57.2099 C 28.9799 57.2099 28.99 57.2099 29 57.21 L 67 57.21 C 69.5074 57.21 71.54 59.2426 71.54 61.75 L 71.54 82.85 L 78.76 78.32 C 79.6148 77.7428 80.0895 76.7475 80 75.72 Z"/><path d=" M 69.57 86.67 L 69.57 61.75 C 69.5701 60.3472 68.433 59.2099 67.0302 59.2098 C 67.0201 59.2098 67.0101 59.2099 67 59.21 L 29 59.21 C 27.5972 59.21 26.46 60.3472 26.46 61.75 L 26.46 86.67 L 18.81 86.67 L 18.81 87.94 C 18.8155 89.3405 19.9495 90.4745 21.35 90.48 L 74.65 90.48 C 76.0505 90.4745 77.1845 89.3405 77.19 87.94 L 77.19 86.67 Z M 42.82 78.32 L 41.41 79.73 L 35.8 74.12 L 41.41 68.51 L 42.82 69.92 L 38.63 74.12 Z M 46.55 80.43 L 44.7 79.66 L 49.39 68.34 L 51.23 69.11 Z M 54.55 79.73 L 53.14 78.32 L 57.33 74.12 L 53.14 69.92 L 54.55 68.51 L 60.16 74.12 Z"/></svg>